<svg xmlns="http://www.w3.org/2000/svg" viewBox="0 0 1200 800" role="img" aria-label="Momcozy KleanPal Pro Baby Bottle Washer, Sterilizer and Dryer">
  <defs>
    <linearGradient id="bg" x1="0" y1="0" x2="1" y2="1">
      <stop offset="0" stop-color="#f7efe5"/>
      <stop offset="1" stop-color="#e2f4f2"/>
    </linearGradient>
    <linearGradient id="machine" x1="0" y1="0" x2="0" y2="1">
      <stop offset="0" stop-color="#ffffff"/>
      <stop offset="1" stop-color="#e5eeee"/>
    </linearGradient>
  </defs>
  <rect width="1200" height="800" fill="url(#bg)"/>
  <circle cx="1020" cy="145" r="210" fill="#ffffff" opacity="0.6"/>
  <circle cx="170" cy="675" r="250" fill="#ffffff" opacity="0.58"/>
  <rect x="145" y="135" width="910" height="560" rx="36" fill="#ffffff" opacity="0.78"/>

  <g transform="translate(95 130) scale(0.88)">
    <rect x="95" y="55" width="410" height="520" rx="52" fill="url(#machine)" stroke="#9fb0b0" stroke-width="9"/>
    <rect x="135" y="105" width="330" height="275" rx="34" fill="#f9fcfc" stroke="#b7c7c7" stroke-width="7"/>
    <path d="M190 164h58v154h-58z" fill="#ffffff" stroke="#86a7a7" stroke-width="7"/>
    <path d="M270 150h58v168h-58z" fill="#ffffff" stroke="#86a7a7" stroke-width="7"/>
    <path d="M350 174h58v144h-58z" fill="#ffffff" stroke="#86a7a7" stroke-width="7"/>
    <path d="M176 345c76 30 172 30 248 0" fill="none" stroke="#2f6f73" stroke-width="10" stroke-linecap="round" opacity="0.6"/>
    <rect x="160" y="420" width="280" height="86" rx="28" fill="#ffffff" stroke="#9fb0b0" stroke-width="7"/>
    <circle cx="220" cy="463" r="18" fill="#2f6f73"/>
    <circle cx="300" cy="463" r="18" fill="#846036"/>
    <circle cx="380" cy="463" r="18" fill="#d5b58b"/>
    <path d="M535 210c42 38 42 104 0 142" fill="none" stroke="#2f6f73" stroke-width="13" stroke-linecap="round" opacity="0.55"/>
    <path d="M64 210c-42 38-42 104 0 142" fill="none" stroke="#846036" stroke-width="13" stroke-linecap="round" opacity="0.55"/>
  </g>

  <g transform="translate(680 225)">
    <text x="0" y="0" font-family="Arial, Helvetica, sans-serif" font-size="34" font-weight="700" fill="#2f6f73">feeding</text>
    <text x="0" y="68" font-family="Arial, Helvetica, sans-serif" font-size="54" font-weight="800" fill="#846036">Momcozy</text>
    <text x="0" y="128" font-family="Arial, Helvetica, sans-serif" font-size="42" font-weight="800" fill="#846036">KleanPal Pro</text>
    <text x="0" y="176" font-family="Arial, Helvetica, sans-serif" font-size="31" font-weight="700" fill="#846036">Bottle Washer</text>
    <rect x="0" y="224" width="315" height="16" rx="8" fill="#846036" opacity="0.18"/>
    <rect x="0" y="260" width="410" height="16" rx="8" fill="#2f6f73" opacity="0.14"/>
    <text x="0" y="330" font-family="Arial, Helvetica, sans-serif" font-size="24" font-weight="700" fill="#2f6f73">wash + sterilize + dry</text>
  </g>
</svg>
