<svg xmlns="http://www.w3.org/2000/svg" width="1200" height="900" viewBox="0 0 1200 900" role="img" aria-labelledby="title desc">
  <title id="title">Lume Cube Edge 2.0 desk light illustration</title>
  <desc id="desc">Clamp-on swing-arm desk lamp with webcam lighting and task-lighting zones.</desc>
  <rect width="1200" height="900" fill="#fbfaf7"/>
  <rect x="115" y="110" width="970" height="680" rx="42" fill="#ffffff" stroke="#e8dfd0" stroke-width="4"/>
  <rect x="250" y="675" width="700" height="45" rx="22" fill="#6e5541"/>
  <rect x="760" y="615" width="70" height="95" rx="16" fill="#6e5541"/>
  <path d="M795 615L675 485L535 535" fill="none" stroke="#2f4050" stroke-width="22" stroke-linecap="round" stroke-linejoin="round"/>
  <rect x="420" y="470" width="165" height="95" rx="28" transform="rotate(-17 502 518)" fill="#fff1b8" stroke="#d8ac42" stroke-width="8"/>
  <path d="M455 570c-80 70-105 120-75 150" fill="none" stroke="#ffd86b" stroke-width="18" stroke-linecap="round" opacity=".7"/>
  <rect x="705" y="285" width="210" height="155" rx="18" fill="#edf3f8" stroke="#b7c7d5" stroke-width="6"/>
  <circle cx="810" cy="356" r="34" fill="#87a9c8"/>
  <path d="M760 420c20-46 80-46 100 0" fill="#87a9c8"/>
  <circle cx="502" cy="518" r="16" fill="#d8ac42"/>
  <text x="600" y="820" text-anchor="middle" font-family="Arial, sans-serif" font-size="38" font-weight="700" fill="#2f4050">Task Light + Webcam Light</text>
</svg>
