<svg xmlns="http://www.w3.org/2000/svg" viewBox="0 0 1200 800" role="img" aria-label="NETGEAR Orbi 970 Wi-Fi 7 Mesh">
  <defs><linearGradient id="bg" x1="0" y1="0" x2="1" y2="1"><stop offset="0" stop-color="#e4f1fb"/><stop offset="1" stop-color="#fff4dc"/></linearGradient></defs>
  <rect width="1200" height="800" fill="url(#bg)"/>
  <circle cx="1035" cy="130" r="220" fill="#fff" opacity="0.62"/><circle cx="150" cy="675" r="260" fill="#fff" opacity="0.58"/>
  <rect x="150" y="135" width="900" height="560" rx="36" fill="#fff" opacity="0.84"/>
  <g transform="translate(80 130) scale(0.82)">
    <rect x="160" y="210" width="120" height="250" rx="42" fill="#fff" stroke="#255f8f" stroke-width="10"/>
    <rect x="315" y="165" width="140" height="310" rx="48" fill="#fff" stroke="#255f8f" stroke-width="10"/>
    <rect x="495" y="230" width="120" height="230" rx="42" fill="#fff" stroke="#255f8f" stroke-width="10"/>
    <path d="M205 290h30M205 350h30M360 260h50M360 325h50M535 305h40M535 365h40" stroke="#8fb0c7" stroke-width="14" stroke-linecap="round"/>
    <path d="M135 185c170-105 340-105 510 0M170 525c145 70 295 70 440 0" fill="none" stroke="#7a5a20" stroke-width="15" stroke-linecap="round" opacity="0.42"/></g>
  <g transform="translate(700 225)">
    <text x="0" y="0" font-family="Arial, Helvetica, sans-serif" font-size="34" font-weight="700" fill="#255f8f">wifi</text>
    <text x="0" y="70" font-family="Arial, Helvetica, sans-serif" font-size="50" font-weight="800" fill="#173f63">NETGEAR Orbi 970</text>
    <text x="0" y="130" font-family="Arial, Helvetica, sans-serif" font-size="38" font-weight="800" fill="#173f63">Wi-Fi 7 Mesh</text>
    <rect x="0" y="205" width="315" height="16" rx="8" fill="#7a5a20" opacity="0.18"/>
    <rect x="0" y="240" width="410" height="16" rx="8" fill="#255f8f" opacity="0.14"/>
    <text x="0" y="315" font-family="Arial, Helvetica, sans-serif" font-size="24" font-weight="700" fill="#255f8f">layout + ports + setup fit</text>
  </g>
</svg>